<svg xmlns="http://www.w3.org/2000/svg" width="33.082" height="33.082" viewBox="0 0 33.082 33.082">
  <path id="Icon_awesome-behance-square" data-name="Icon awesome-behance-square" d="M13.772,21.523c0,1.425-1.034,1.876-2.3,1.876H8.138V19.493h3.4C12.908,19.5,13.772,20.069,13.772,21.523ZM13.2,15.446c0-1.307-1.012-1.617-2.134-1.617H8.145v3.308H11.3c1.115,0,1.905-.487,1.905-1.691Zm9.77,1.713a2.2,2.2,0,0,0-2.341,2.193h4.593A2.1,2.1,0,0,0,22.973,17.159ZM33.082,5.795V31.788a3.545,3.545,0,0,1-3.545,3.545H3.545A3.545,3.545,0,0,1,0,31.788V5.795A3.545,3.545,0,0,1,3.545,2.25H29.538A3.545,3.545,0,0,1,33.082,5.795ZM20.063,13.548h5.745v-1.4H20.063Zm-3.175,8.145a3.671,3.671,0,0,0-2.585-3.81,2.757,2.757,0,0,0,1.935-2.732c0-2.821-2.1-3.508-4.534-3.508H5.021V25.821H11.9C14.473,25.806,16.888,24.573,16.888,21.693ZM28.061,20.6c0-3.035-1.78-5.568-4.992-5.568a5.154,5.154,0,0,0-5.25,5.435c0,3.2,2.016,5.391,5.25,5.391A4.578,4.578,0,0,0,27.876,22.4H25.388a2.336,2.336,0,0,1-2.23,1.337,2.317,2.317,0,0,1-2.518-2.607h7.4C28.046,20.962,28.061,20.777,28.061,20.6Z" transform="translate(0 -2.25)" fill="#fff"/>
</svg>
