<svg xmlns="http://www.w3.org/2000/svg" width="33.088" height="33.088" viewBox="0 0 33.088 33.088">
  <path id="Icon_awesome-dribbble-square" data-name="Icon awesome-dribbble-square" d="M6.662,16.741a10.125,10.125,0,0,1,5.591-7.068A65.151,65.151,0,0,1,16,15.507a37.625,37.625,0,0,1-9.336,1.233Zm16.573-5.48A10.058,10.058,0,0,0,14.181,9a54.326,54.326,0,0,1,3.767,5.909A11.449,11.449,0,0,0,23.235,11.261ZM10.347,26.77A10.075,10.075,0,0,0,20.488,28.1a41.67,41.67,0,0,0-2.157-7.652C14.262,21.837,11.4,24.614,10.347,26.77Zm7.3-7.991c-.251-.576-.532-1.145-.82-1.713A36.959,36.959,0,0,1,6.455,18.5c0,.1-.007.207-.007.31A10.075,10.075,0,0,0,9.04,25.559,15.656,15.656,0,0,1,17.644,18.779Zm2.578,1.2a43.159,43.159,0,0,1,1.957,7.194,10.1,10.1,0,0,0,4.328-6.765,14.727,14.727,0,0,0-6.285-.428Zm-1.5-3.575c.355.724.613,1.315.886,1.979a23.524,23.524,0,0,1,7.031.325,10,10,0,0,0-2.282-6.285A13.514,13.514,0,0,1,18.723,16.408ZM33.088,5.8v26a3.546,3.546,0,0,1-3.545,3.545h-26A3.546,3.546,0,0,1,0,31.793V5.8A3.546,3.546,0,0,1,3.545,2.25h26A3.546,3.546,0,0,1,33.088,5.8Zm-4.727,13A11.817,11.817,0,1,0,16.544,30.611,11.833,11.833,0,0,0,28.361,18.794Z" transform="translate(0 -2.25)" fill="#fff"/>
</svg>
